<svg width="100" height="100" viewBox="0 0 100 100" fill="none" xmlns="http://www.w3.org/2000/svg">
<path d="M24.6643 1.50704e-06C26.4838 1.50704e-06 28 1.48148 28 3.25926V28.7407C28 30.5185 26.4838 32 24.6643 32H3.33574C1.51625 32 0 30.5185 0 28.7407V3.25926C0 1.48148 1.51625 1.50704e-06 3.33574 1.50704e-06H24.6643V1.50704e-06Z" transform="translate(18 51)" fill="#1AA0E8"/>
<path d="M24.6643 7.25228e-07C26.4838 7.25228e-07 28 1.42586 28 3.13688V46.8631C28 48.5741 26.4838 50 24.6643 50H3.33574C1.51624 50 -7.71202e-07 48.5741 -7.71202e-07 46.8631V3.13688C-7.71202e-07 1.42586 1.51624 7.25228e-07 3.33574 7.25228e-07H24.6643Z" transform="translate(58 33)" fill="#1AA0E8"/>
<path d="M24.6643 0C26.4838 0 28 1.41834 28 3.12034V62.8797C28 64.5817 26.4838 66 24.6643 66H3.33574C1.51625 66 -3.85601e-07 64.5817 -3.85601e-07 62.8797V3.12034C-3.85601e-07 1.41834 1.51625 0 3.33574 0H24.6643Z" transform="translate(38 17)" fill="#0B63CE"/>
<path d="M0.102564 0.00170935H4.61538C4.61538 0.00170935 8 -0.195657 8 3.65292V29.3101C8 29.3101 8 31.9745 4 31.9745C4 31.9745 0.615384 32.4679 -7.82502e-07 29.1128V0.00170935H0.102564Z" transform="translate(38 51)" fill="#134194"/>
<path d="M3.38461 0.00164498C3.38461 0.00164498 -7.82502e-07 -0.188371 -7.82502e-07 3.51691V22.7084V28.2188V47.4103C-7.82502e-07 47.4103 8.17435e-07 49.9755 4 49.9755C4 49.9755 7.38461 50.4505 8 47.2203V28.0288V19.1931V0.00164498H3.38461Z" transform="translate(58 33)" fill="#134194"/>
</svg>
