<svg width="100" height="100" viewBox="0 0 100 100" fill="none" xmlns="http://www.w3.org/2000/svg">
<path fill-rule="evenodd" clip-rule="evenodd" d="M5.23523 7.39421C12.9031 -3.35942 34.2233 -1.86326 45.725 8.51633C67.4192 28.0599 39.2728 76.2174 12.9031 56.9544C12.2483 56.4869 11.5938 56.0193 10.9392 55.4583C2.61682 48.258 -4.11597 38.0654 2.99085 12.0697C3.45837 10.293 4.29993 8.79686 5.23523 7.39421Z" transform="translate(29.543 19)" fill="#1AA0E8"/>
<path fill-rule="evenodd" clip-rule="evenodd" d="M17.7781 2.10051C39.9398 -6.96994 67.7123 14.8178 46.1114 39.0369C41.062 44.6475 33.2071 49.6035 25.4458 51.6607C19.8353 53.1569 14.2247 53.0633 9.82982 50.5386C-0.73683 44.6475 -3.35512 23.7013 4.78026 12.4801C8.52062 7.43055 13.0091 4.0642 17.7781 2.10051Z" transform="translate(17 24.2937)" fill="#0B63CE"/>
<path d="M33.5685 39.0369C55.1693 14.8178 27.3969 -6.96994 5.23506 2.10051C4.29996 3.50315 3.45837 4.99931 2.99082 6.776C-4.11593 32.7717 2.61678 42.9643 10.9392 50.1646C11.5937 50.7256 12.2483 51.1932 12.9029 51.6607C20.6642 49.6035 28.519 44.6475 33.5685 39.0369Z" transform="translate(29.543 24.2937)" fill="#134194"/>
</svg>
